P3
64 32
255
127 127 255
127 127 255
127 127 255
127 127 255
127 127 255
127 127 255
127 127 255
127 127 255
127 127 255
127 127 255
127 127 255
127 127 255
127 127 255
127 127 255
127 127 255
127 127 255
127 127 255
127 127 255
127 127 255
127 127 255
127 127 255
127 127 255
127 127 255
127 127 255
127 127 255
127 127 255
127 127 255
127 127 255
127 127 255
127 127 255
127 127 255
127 127 255
127 127 255
127 127 255
127 127 255
127 127 255
127 127 255
127 127 255
127 127 255
127 127 255
127 127 255
127 127 255
127 127 255
127 127 255
127 127 255
127 127 255
127 127 255
127 127 255
127 127 255
127 127 255
127 127 255
127 127 255
127 127 255
127 127 255
127 127 255
127 127 255
127 127 255
127 127 255
127 127 255
127 127 255
127 127 255
127 127 255
127 127 255
127 127 255
127 127 255
127 127 255
127 127 255
127 127 255
127 127 255
127 127 255
127 127 255
127 127 255
127 127 255
127 127 255
127 127 255
127 127 255
127 127 255
127 127 255
127 127 255
127 127 255
127 127 255
127 127 255
127 127 255
127 127 255
127 127 255
127 127 255
127 127 255
127 127 255
127 127 255
127 127 255
127 127 255
127 127 255
127 127 255
127 127 255
127 127 255
127 127 255
127 127 255
127 127 255
127 127 255
127 127 255
127 127 255
127 127 255
127 127 255
127 127 255
127 127 255
127 127 255
127 127 255
127 127 255
127 127 255
127 127 255
127 127 255
127 127 255
127 127 255
127 127 255
127 127 255
127 127 255
127 127 255
127 127 255
127 127 255
127 127 255
127 127 255
127 127 255
127 127 255
127 127 255
127 127 255
127 127 255
127 127 255
127 127 255
127 127 255
127 127 255
127 127 255
127 127 255
127 127 255
127 127 255
127 127 255
127 127 255
127 127 255
127 127 255
127 127 255
127 127 255
127 127 255
127 127 255
127 127 255
127 127 255
127 127 255
127 127 255
127 127 255
127 127 255
127 127 255
127 127 255
127 127 255
127 127 255
127 127 255
127 127 255
127 127 255
123 224 -88
123 224 -88
123 224 -88
123 224 -88
123 224 -88
123 224 -88
123 224 -88
123 224 -88
123 224 -88
123 224 -88
127 127 255
127 127 255
127 127 255
127 127 255
127 127 255
127 127 255
127 127 255
127 127 255
127 127 255
127 127 255
127 127 255
127 127 255
127 127 255
127 127 255
127 127 255
127 127 255
127 127 255
127 127 255
127 127 255
127 127 255
127 127 255
127 127 255
127 127 255
127 127 255
127 127 255
127 127 255
127 127 255
127 127 255
127 127 255
127 127 255
127 127 255
127 127 255
127 127 255
127 127 255
127 127 255
127 127 255
127 127 255
127 127 255
127 127 255
127 127 255
127 127 255
127 127 255
127 127 255
127 127 255
127 127 255
127 127 255
127 127 255
127 127 255
127 127 255
127 127 255
127 127 255
127 127 255
123 224 -88
123 224 -88
123 224 -88
123 224 -88
123 224 -88
123 224 -88
123 224 -88
123 224 -88
123 224 -88
123 224 -88
123 224 -88
123 224 -88
123 224 -88
123 224 -88
127 127 255
127 127 255
127 127 255
127 127 255
127 127 255
127 127 255
127 127 255
127 127 255
127 127 255
127 127 255
127 127 255
127 127 255
127 127 255
127 127 255
127 127 255
127 127 255
127 127 255
127 127 255
127 127 255
127 127 255
127 127 255
127 127 255
127 127 255
127 127 255
127 127 255
127 127 255
127 127 255
127 127 255
127 127 255
127 127 255
127 127 255
127 127 255
127 127 255
127 127 255
127 127 255
127 127 255
127 127 255
127 127 255
127 127 255
127 127 255
127 127 255
127 127 255
127 127 255
127 127 255
127 127 255
127 127 255
127 127 255
127 127 255
123 224 -88
123 224 -88
123 224 -88
123 224 -88
123 224 -88
123 224 -88
123 224 -88
123 224 -88
123 224 -88
123 224 -88
123 224 -88
123 224 -88
123 224 -88
123 224 -88
123 224 -88
123 224 -88
123 224 -88
123 224 -88
127 127 255
127 127 255
127 127 255
127 127 255
127 127 255
127 127 255
127 127 255
127 127 255
127 127 255
127 127 255
127 127 255
127 127 255
127 127 255
127 127 255
127 127 255
127 127 255
127 127 255
127 127 255
127 127 255
127 127 255
127 127 255
127 127 255
127 127 255
127 127 255
127 127 255
127 127 255
127 127 255
127 127 255
127 127 255
127 127 255
127 127 255
127 127 255
127 127 255
127 127 255
127 127 255
127 127 255
127 127 255
127 127 255
127 127 255
127 127 255
127 127 255
127 127 255
127 127 255
127 127 255
127 127 255
123 224 -88
123 224 -88
123 224 -88
123 224 -88
123 224 -88
123 224 -88
123 224 -88
123 224 -88
123 224 -88
123 224 -88
123 224 -88
123 224 -88
123 224 -88
123 224 -88
123 224 -88
123 224 -88
123 224 -88
123 224 -88
123 224 -88
123 224 -88
127 127 255
127 127 255
127 127 255
127 127 255
127 127 255
127 127 255
127 127 255
127 127 255
127 127 255
127 127 255
127 127 255
127 127 255
127 127 255
127 127 255
127 127 255
127 127 255
127 127 255
127 127 255
127 127 255
127 127 255
127 127 255
127 127 255
127 127 255
127 127 255
127 127 255
127 127 255
127 127 255
127 127 255
127 127 255
127 127 255
127 127 255
127 127 255
127 127 255
127 127 255
127 127 255
127 127 255
127 127 255
127 127 255
127 127 255
127 127 255
127 127 255
127 127 255
127 127 255
123 224 -88
123 224 -88
123 224 -88
123 224 -88
123 224 -88
123 224 -88
123 224 -88
123 224 -88
123 224 -88
123 224 -88
123 224 -88
123 224 -88
123 224 -88
123 224 -88
123 224 -88
123 224 -88
123 224 -88
123 224 -88
123 224 -88
123 224 -88
123 224 -88
123 224 -88
127 127 255
127 127 255
127 127 255
127 127 255
127 127 255
127 127 255
127 127 255
127 127 255
127 127 255
127 127 255
127 127 255
127 127 255
127 127 255
127 127 255
127 127 255
127 127 255
127 127 255
127 127 255
127 127 255
127 127 255
127 127 255
127 127 255
127 127 255
127 127 255
127 127 255
127 127 255
127 127 255
127 127 255
127 127 255
127 127 255
127 127 255
127 127 255
127 127 255
127 127 255
127 127 255
127 127 255
127 127 255
127 127 255
127 127 255
127 127 255
127 127 255
123 224 -88
123 224 -88
123 224 -88
123 224 -88
123 224 -88
123 224 -88
123 224 -88
123 224 -88
123 224 -88
123 224 -88
123 224 -88
123 224 -88
123 224 -88
123 224 -88
123 224 -88
123 224 -88
123 224 -88
123 224 -88
123 224 -88
123 224 -88
123 224 -88
123 224 -88
123 224 -88
123 224 -88
127 127 255
127 127 255
127 127 255
127 127 255
127 127 255
127 127 255
127 127 255
127 127 255
127 127 255
127 127 255
127 127 255
127 127 255
127 127 255
127 127 255
127 127 255
127 127 255
127 127 255
127 127 255
127 127 255
127 127 255
127 127 255
127 127 255
127 127 255
127 127 255
127 127 255
127 127 255
127 127 255
127 127 255
127 127 255
127 127 255
127 127 255
127 127 255
127 127 255
127 127 255
127 127 255
127 127 255
127 127 255
127 127 255
127 127 255
127 127 255
123 224 -88
123 224 -88
123 224 -88
123 224 -88
123 224 -88
123 224 -88
123 224 -88
123 224 -88
123 224 -88
123 224 -88
123 224 -88
123 224 -88
123 224 -88
123 224 -88
123 224 -88
123 224 -88
123 224 -88
123 224 -88
123 224 -88
123 224 -88
123 224 -88
123 224 -88
123 224 -88
123 224 -88
127 127 255
127 127 255
127 127 255
127 127 255
127 127 255
127 127 255
127 127 255
127 127 255
127 127 255
127 127 255
127 127 255
127 127 255
127 127 255
127 127 255
127 127 255
127 127 255
127 127 255
127 127 255
127 127 255
127 127 255
127 127 255
127 127 255
127 127 255
127 127 255
127 127 255
127 127 255
127 127 255
127 127 255
127 127 255
127 127 255
127 127 255
127 127 255
127 127 255
127 127 255
127 127 255
127 127 255
127 127 255
127 127 255
127 127 255
123 224 -88
123 224 -88
123 224 -88
123 224 -88
123 224 -88
123 224 -88
123 224 -88
123 224 -88
123 224 -88
123 224 -88
123 224 -88
123 224 -88
123 224 -88
123 224 -88
123 224 -88
123 224 -88
123 224 -88
123 224 -88
123 224 -88
123 224 -88
123 224 -88
123 224 -88
123 224 -88
123 224 -88
123 224 -88
123 224 -88
127 127 255
127 127 255
127 127 255
127 127 255
127 127 255
127 127 255
127 127 255
127 127 255
127 127 255
127 127 255
127 127 255
127 127 255
127 127 255
127 127 255
127 127 255
127 127 255
127 127 255
127 127 255
127 127 255
127 127 255
127 127 255
127 127 255
127 127 255
127 127 255
127 127 255
127 127 255
127 127 255
127 127 255
127 127 255
127 127 255
127 127 255
127 127 255
127 127 255
127 127 255
127 127 255
127 127 255
127 127 255
127 127 255
123 224 -88
123 224 -88
123 224 -88
123 224 -88
123 224 -88
123 224 -88
123 224 -88
123 224 -88
123 224 -88
123 224 -88
123 224 -88
123 224 -88
123 224 -88
123 224 -88
123 224 -88
123 224 -88
123 224 -88
123 224 -88
123 224 -88
123 224 -88
123 224 -88
123 224 -88
123 224 -88
123 224 -88
123 224 -88
123 224 -88
127 127 255
127 127 255
127 127 255
127 127 255
127 127 255
127 127 255
127 127 255
127 127 255
127 127 255
127 127 255
127 127 255
127 127 255
127 127 255
127 127 255
127 127 255
127 127 255
127 127 255
127 127 255
127 127 255
127 127 255
127 127 255
127 127 255
127 127 255
127 127 255
127 127 255
127 127 255
127 127 255
127 127 255
127 127 255
127 127 255
127 127 255
127 127 255
127 127 255
127 127 255
127 127 255
127 127 255
127 127 255
123 224 -88
123 224 -88
123 224 -88
123 224 -88
123 224 -88
123 224 -88
123 224 -88
123 224 -88
123 224 -88
123 224 -88
123 224 -88
123 224 -88
123 224 -88
123 224 -88
123 224 -88
123 224 -88
123 224 -88
123 224 -88
123 224 -88
123 224 -88
123 224 -88
123 224 -88
123 224 -88
123 224 -88
123 224 -88
123 224 -88
123 224 -88
123 224 -88
127 127 255
127 127 255
127 127 255
127 127 255
127 127 255
127 127 255
127 127 255
127 127 255
127 127 255
127 127 255
127 127 255
127 127 255
127 127 255
127 127 255
127 127 255
127 127 255
127 127 255
127 127 255
127 127 255
127 127 255
127 127 255
127 127 255
127 127 255
127 127 255
127 127 255
127 127 255
127 127 255
127 127 255
127 127 255
127 127 255
127 127 255
127 127 255
127 127 255
127 127 255
127 127 255
127 127 255
123 224 -88
123 224 -88
123 224 -88
123 224 -88
123 224 -88
123 224 -88
123 224 -88
123 224 -88
123 224 -88
123 224 -88
123 224 -88
123 224 -88
123 224 -88
123 224 -88
123 224 -88
123 224 -88
123 224 -88
123 224 -88
123 224 -88
123 224 -88
123 224 -88
123 224 -88
123 224 -88
123 224 -88
123 224 -88
123 224 -88
123 224 -88
123 224 -88
127 127 255
127 127 255
127 127 255
127 127 255
127 127 255
127 127 255
127 127 255
127 127 255
127 127 255
127 127 255
127 127 255
127 127 255
127 127 255
127 127 255
127 127 255
127 127 255
127 127 255
127 127 255
127 127 255
127 127 255
127 127 255
127 127 255
127 127 255
127 127 255
127 127 255
127 127 255
127 127 255
127 127 255
127 127 255
127 127 255
127 127 255
127 127 255
127 127 255
127 127 255
127 127 255
127 127 255
123 224 -88
123 224 -88
123 224 -88
123 224 -88
123 224 -88
123 224 -88
123 224 -88
123 224 -88
123 224 -88
123 224 -88
123 224 -88
123 224 -88
123 224 -88
123 224 -88
123 224 -88
123 224 -88
123 224 -88
123 224 -88
123 224 -88
123 224 -88
123 224 -88
123 224 -88
123 224 -88
123 224 -88
123 224 -88
123 224 -88
123 224 -88
123 224 -88
127 127 255
127 127 255
127 127 255
127 127 255
127 127 255
127 127 255
127 127 255
127 127 255
127 127 255
127 127 255
127 127 255
127 127 255
127 127 255
127 127 255
127 127 255
127 127 255
127 127 255
127 127 255
127 127 255
127 127 255
127 127 255
127 127 255
127 127 255
127 127 255
127 127 255
127 127 255
127 127 255
127 127 255
127 127 255
127 127 255
127 127 255
127 127 255
127 127 255
127 127 255
127 127 255
127 127 255
123 224 -88
123 224 -88
123 224 -88
123 224 -88
123 224 -88
123 224 -88
123 224 -88
123 224 -88
123 224 -88
123 224 -88
123 224 -88
123 224 -88
123 224 -88
123 224 -88
123 224 -88
123 224 -88
123 224 -88
123 224 -88
123 224 -88
123 224 -88
123 224 -88
123 224 -88
123 224 -88
123 224 -88
123 224 -88
123 224 -88
123 224 -88
123 224 -88
127 127 255
127 127 255
127 127 255
127 127 255
127 127 255
127 127 255
127 127 255
127 127 255
127 127 255
127 127 255
127 127 255
127 127 255
127 127 255
127 127 255
127 127 255
127 127 255
127 127 255
127 127 255
127 127 255
127 127 255
127 127 255
127 127 255
127 127 255
127 127 255
127 127 255
127 127 255
127 127 255
127 127 255
127 127 255
127 127 255
127 127 255
127 127 255
127 127 255
127 127 255
127 127 255
127 127 255
123 224 -88
123 224 -88
123 224 -88
123 224 -88
123 224 -88
123 224 -88
123 224 -88
123 224 -88
123 224 -88
123 224 -88
123 224 -88
123 224 -88
123 224 -88
123 224 -88
123 224 -88
123 224 -88
123 224 -88
123 224 -88
123 224 -88
123 224 -88
123 224 -88
123 224 -88
123 224 -88
123 224 -88
123 224 -88
123 224 -88
123 224 -88
123 224 -88
127 127 255
127 127 255
127 127 255
127 127 255
127 127 255
127 127 255
127 127 255
127 127 255
127 127 255
127 127 255
127 127 255
127 127 255
127 127 255
127 127 255
127 127 255
127 127 255
127 127 255
127 127 255
127 127 255
127 127 255
127 127 255
127 127 255
127 127 255
127 127 255
127 127 255
127 127 255
127 127 255
127 127 255
127 127 255
127 127 255
127 127 255
127 127 255
127 127 255
127 127 255
127 127 255
127 127 255
123 224 -88
123 224 -88
123 224 -88
123 224 -88
123 224 -88
123 224 -88
123 224 -88
123 224 -88
123 224 -88
123 224 -88
123 224 -88
123 224 -88
123 224 -88
123 224 -88
123 224 -88
123 224 -88
123 224 -88
123 224 -88
123 224 -88
123 224 -88
123 224 -88
123 224 -88
123 224 -88
123 224 -88
123 224 -88
123 224 -88
123 224 -88
123 224 -88
127 127 255
127 127 255
127 127 255
127 127 255
127 127 255
127 127 255
127 127 255
127 127 255
127 127 255
127 127 255
127 127 255
127 127 255
127 127 255
127 127 255
127 127 255
127 127 255
127 127 255
127 127 255
127 127 255
127 127 255
127 127 255
127 127 255
127 127 255
127 127 255
127 127 255
127 127 255
127 127 255
127 127 255
127 127 255
127 127 255
127 127 255
127 127 255
127 127 255
127 127 255
127 127 255
127 127 255
123 224 -88
123 224 -88
123 224 -88
123 224 -88
123 224 -88
123 224 -88
123 224 -88
123 224 -88
123 224 -88
123 224 -88
123 224 -88
123 224 -88
123 224 -88
123 224 -88
123 224 -88
123 224 -88
123 224 -88
123 224 -88
123 224 -88
123 224 -88
123 224 -88
123 224 -88
123 224 -88
123 224 -88
123 224 -88
123 224 -88
123 224 -88
123 224 -88
127 127 255
127 127 255
127 127 255
127 127 255
127 127 255
127 127 255
127 127 255
127 127 255
127 127 255
127 127 255
127 127 255
127 127 255
127 127 255
127 127 255
127 127 255
127 127 255
127 127 255
127 127 255
127 127 255
127 127 255
127 127 255
127 127 255
127 127 255
127 127 255
127 127 255
127 127 255
127 127 255
127 127 255
127 127 255
127 127 255
127 127 255
127 127 255
127 127 255
127 127 255
127 127 255
127 127 255
123 224 -88
123 224 -88
123 224 -88
123 224 -88
123 224 -88
123 224 -88
123 224 -88
123 224 -88
123 224 -88
123 224 -88
123 224 -88
123 224 -88
123 224 -88
123 224 -88
123 224 -88
123 224 -88
123 224 -88
123 224 -88
123 224 -88
123 224 -88
123 224 -88
123 224 -88
123 224 -88
123 224 -88
123 224 -88
123 224 -88
123 224 -88
123 224 -88
127 127 255
127 127 255
127 127 255
127 127 255
127 127 255
127 127 255
127 127 255
127 127 255
127 127 255
127 127 255
127 127 255
127 127 255
127 127 255
127 127 255
127 127 255
127 127 255
127 127 255
127 127 255
127 127 255
127 127 255
127 127 255
127 127 255
127 127 255
127 127 255
127 127 255
127 127 255
127 127 255
127 127 255
127 127 255
127 127 255
127 127 255
127 127 255
127 127 255
127 127 255
127 127 255
127 127 255
123 224 -88
123 224 -88
123 224 -88
123 224 -88
123 224 -88
123 224 -88
123 224 -88
123 224 -88
123 224 -88
123 224 -88
123 224 -88
123 224 -88
123 224 -88
123 224 -88
123 224 -88
123 224 -88
123 224 -88
123 224 -88
123 224 -88
123 224 -88
123 224 -88
123 224 -88
123 224 -88
123 224 -88
123 224 -88
123 224 -88
123 224 -88
123 224 -88
127 127 255
127 127 255
127 127 255
127 127 255
127 127 255
127 127 255
127 127 255
127 127 255
127 127 255
127 127 255
127 127 255
127 127 255
127 127 255
127 127 255
127 127 255
127 127 255
127 127 255
127 127 255
127 127 255
127 127 255
127 127 255
127 127 255
127 127 255
127 127 255
127 127 255
127 127 255
127 127 255
127 127 255
127 127 255
127 127 255
127 127 255
127 127 255
127 127 255
127 127 255
127 127 255
127 127 255
123 224 -88
123 224 -88
123 224 -88
123 224 -88
123 224 -88
123 224 -88
123 224 -88
123 224 -88
123 224 -88
123 224 -88
123 224 -88
123 224 -88
123 224 -88
123 224 -88
123 224 -88
123 224 -88
123 224 -88
123 224 -88
123 224 -88
123 224 -88
123 224 -88
123 224 -88
123 224 -88
123 224 -88
123 224 -88
123 224 -88
123 224 -88
123 224 -88
127 127 255
127 127 255
127 127 255
127 127 255
127 127 255
127 127 255
127 127 255
127 127 255
127 127 255
127 127 255
127 127 255
127 127 255
127 127 255
127 127 255
127 127 255
127 127 255
127 127 255
127 127 255
127 127 255
127 127 255
127 127 255
127 127 255
127 127 255
127 127 255
127 127 255
127 127 255
127 127 255
127 127 255
127 127 255
127 127 255
127 127 255
127 127 255
127 127 255
127 127 255
127 127 255
127 127 255
127 127 255
123 224 -88
123 224 -88
123 224 -88
123 224 -88
123 224 -88
123 224 -88
123 224 -88
123 224 -88
123 224 -88
123 224 -88
123 224 -88
123 224 -88
123 224 -88
123 224 -88
123 224 -88
123 224 -88
123 224 -88
123 224 -88
123 224 -88
123 224 -88
123 224 -88
123 224 -88
123 224 -88
123 224 -88
123 224 -88
123 224 -88
127 127 255
127 127 255
127 127 255
127 127 255
127 127 255
127 127 255
127 127 255
127 127 255
127 127 255
127 127 255
127 127 255
127 127 255
127 127 255
127 127 255
127 127 255
127 127 255
127 127 255
127 127 255
127 127 255
127 127 255
127 127 255
127 127 255
127 127 255
127 127 255
127 127 255
127 127 255
127 127 255
127 127 255
127 127 255
127 127 255
127 127 255
127 127 255
127 127 255
127 127 255
127 127 255
127 127 255
127 127 255
127 127 255
123 224 -88
123 224 -88
123 224 -88
123 224 -88
123 224 -88
123 224 -88
123 224 -88
123 224 -88
123 224 -88
123 224 -88
123 224 -88
123 224 -88
123 224 -88
123 224 -88
123 224 -88
123 224 -88
123 224 -88
123 224 -88
123 224 -88
123 224 -88
123 224 -88
123 224 -88
123 224 -88
123 224 -88
123 224 -88
123 224 -88
127 127 255
127 127 255
127 127 255
127 127 255
127 127 255
127 127 255
127 127 255
127 127 255
127 127 255
127 127 255
127 127 255
127 127 255
127 127 255
127 127 255
127 127 255
127 127 255
127 127 255
127 127 255
127 127 255
127 127 255
127 127 255
127 127 255
127 127 255
127 127 255
127 127 255
127 127 255
127 127 255
127 127 255
127 127 255
127 127 255
127 127 255
127 127 255
127 127 255
127 127 255
127 127 255
127 127 255
127 127 255
127 127 255
127 127 255
123 224 -88
123 224 -88
123 224 -88
123 224 -88
123 224 -88
123 224 -88
123 224 -88
123 224 -88
123 224 -88
123 224 -88
123 224 -88
123 224 -88
123 224 -88
123 224 -88
123 224 -88
123 224 -88
123 224 -88
123 224 -88
123 224 -88
123 224 -88
123 224 -88
123 224 -88
123 224 -88
123 224 -88
127 127 255
127 127 255
127 127 255
127 127 255
127 127 255
127 127 255
127 127 255
127 127 255
127 127 255
127 127 255
127 127 255
127 127 255
127 127 255
127 127 255
127 127 255
127 127 255
127 127 255
127 127 255
127 127 255
127 127 255
127 127 255
127 127 255
127 127 255
127 127 255
127 127 255
127 127 255
127 127 255
127 127 255
127 127 255
127 127 255
127 127 255
127 127 255
127 127 255
127 127 255
127 127 255
127 127 255
127 127 255
127 127 255
127 127 255
127 127 255
123 224 -88
123 224 -88
123 224 -88
123 224 -88
123 224 -88
123 224 -88
123 224 -88
123 224 -88
123 224 -88
123 224 -88
123 224 -88
123 224 -88
123 224 -88
123 224 -88
123 224 -88
123 224 -88
123 224 -88
123 224 -88
123 224 -88
123 224 -88
123 224 -88
123 224 -88
123 224 -88
123 224 -88
127 127 255
127 127 255
127 127 255
127 127 255
127 127 255
127 127 255
127 127 255
127 127 255
127 127 255
127 127 255
127 127 255
127 127 255
127 127 255
127 127 255
127 127 255
127 127 255
127 127 255
127 127 255
127 127 255
127 127 255
127 127 255
127 127 255
127 127 255
127 127 255
127 127 255
127 127 255
127 127 255
127 127 255
127 127 255
127 127 255
127 127 255
127 127 255
127 127 255
127 127 255
127 127 255
127 127 255
127 127 255
127 127 255
127 127 255
127 127 255
127 127 255
123 224 -88
123 224 -88
123 224 -88
123 224 -88
123 224 -88
123 224 -88
123 224 -88
123 224 -88
123 224 -88
123 224 -88
123 224 -88
123 224 -88
123 224 -88
123 224 -88
123 224 -88
123 224 -88
123 224 -88
123 224 -88
123 224 -88
123 224 -88
123 224 -88
123 224 -88
127 127 255
127 127 255
127 127 255
127 127 255
127 127 255
127 127 255
127 127 255
127 127 255
127 127 255
127 127 255
127 127 255
127 127 255
127 127 255
127 127 255
127 127 255
127 127 255
127 127 255
127 127 255
127 127 255
127 127 255
127 127 255
127 127 255
127 127 255
127 127 255
127 127 255
127 127 255
127 127 255
127 127 255
127 127 255
127 127 255
127 127 255
127 127 255
127 127 255
127 127 255
127 127 255
127 127 255
127 127 255
127 127 255
127 127 255
127 127 255
127 127 255
127 127 255
127 127 255
123 224 -88
123 224 -88
123 224 -88
123 224 -88
123 224 -88
123 224 -88
123 224 -88
123 224 -88
123 224 -88
123 224 -88
123 224 -88
123 224 -88
123 224 -88
123 224 -88
123 224 -88
123 224 -88
123 224 -88
123 224 -88
123 224 -88
123 224 -88
127 127 255
127 127 255
127 127 255
127 127 255
127 127 255
127 127 255
127 127 255
127 127 255
127 127 255
127 127 255
127 127 255
127 127 255
127 127 255
127 127 255
127 127 255
127 127 255
127 127 255
127 127 255
127 127 255
127 127 255
127 127 255
127 127 255
127 127 255
127 127 255
127 127 255
127 127 255
127 127 255
127 127 255
127 127 255
127 127 255
127 127 255
127 127 255
127 127 255
127 127 255
127 127 255
127 127 255
127 127 255
127 127 255
127 127 255
127 127 255
127 127 255
127 127 255
127 127 255
127 127 255
127 127 255
123 224 -88
123 224 -88
123 224 -88
123 224 -88
123 224 -88
123 224 -88
123 224 -88
123 224 -88
123 224 -88
123 224 -88
123 224 -88
123 224 -88
123 224 -88
123 224 -88
123 224 -88
123 224 -88
123 224 -88
123 224 -88
127 127 255
127 127 255
127 127 255
127 127 255
127 127 255
127 127 255
127 127 255
127 127 255
127 127 255
127 127 255
127 127 255
127 127 255
127 127 255
127 127 255
127 127 255
127 127 255
127 127 255
127 127 255
127 127 255
127 127 255
127 127 255
127 127 255
127 127 255
127 127 255
127 127 255
127 127 255
127 127 255
127 127 255
127 127 255
127 127 255
127 127 255
127 127 255
127 127 255
127 127 255
127 127 255
127 127 255
127 127 255
127 127 255
127 127 255
127 127 255
127 127 255
127 127 255
127 127 255
127 127 255
127 127 255
127 127 255
127 127 255
127 127 255
123 224 -88
123 224 -88
123 224 -88
123 224 -88
123 224 -88
123 224 -88
123 224 -88
123 224 -88
123 224 -88
123 224 -88
123 224 -88
123 224 -88
123 224 -88
123 224 -88
127 127 255
127 127 255
127 127 255
127 127 255
127 127 255
127 127 255
127 127 255
127 127 255
127 127 255
127 127 255
127 127 255
127 127 255
127 127 255
127 127 255
127 127 255
127 127 255
127 127 255
127 127 255
127 127 255
127 127 255
127 127 255
127 127 255
127 127 255
127 127 255
127 127 255
127 127 255
127 127 255
127 127 255
127 127 255
127 127 255
127 127 255
127 127 255
127 127 255
127 127 255
127 127 255
127 127 255
127 127 255
127 127 255
127 127 255
127 127 255
127 127 255
127 127 255
127 127 255
127 127 255
127 127 255
127 127 255
127 127 255
127 127 255
127 127 255
127 127 255
127 127 255
127 127 255
123 224 -88
123 224 -88
123 224 -88
123 224 -88
123 224 -88
123 224 -88
123 224 -88
123 224 -88
123 224 -88
123 224 -88
127 127 255
127 127 255
127 127 255
127 127 255
127 127 255
127 127 255
127 127 255
127 127 255
127 127 255
127 127 255
127 127 255
127 127 255
127 127 255
127 127 255
127 127 255
127 127 255
127 127 255
127 127 255
127 127 255
127 127 255
127 127 255
127 127 255
127 127 255
127 127 255
127 127 255
127 127 255
127 127 255
127 127 255
127 127 255
127 127 255
127 127 255
127 127 255
127 127 255
127 127 255
127 127 255
127 127 255
127 127 255
127 127 255
127 127 255
127 127 255
127 127 255
127 127 255
127 127 255
127 127 255
127 127 255
127 127 255
127 127 255
127 127 255
127 127 255
127 127 255
127 127 255
127 127 255
127 127 255
127 127 255
127 127 255
127 127 255
127 127 255
127 127 255
127 127 255
127 127 255
127 127 255
127 127 255
127 127 255
127 127 255
127 127 255
127 127 255
127 127 255
127 127 255
127 127 255
127 127 255
127 127 255
127 127 255
127 127 255
127 127 255
127 127 255
127 127 255
127 127 255
127 127 255
127 127 255
127 127 255
127 127 255
127 127 255
127 127 255
127 127 255
127 127 255
127 127 255
127 127 255
127 127 255
127 127 255
127 127 255
127 127 255
127 127 255
127 127 255
127 127 255
127 127 255
127 127 255
127 127 255
127 127 255
127 127 255
127 127 255
127 127 255
127 127 255
127 127 255
127 127 255
127 127 255
127 127 255
127 127 255
127 127 255
127 127 255
127 127 255
127 127 255
127 127 255
127 127 255
127 127 255
127 127 255
127 127 255
127 127 255
127 127 255
127 127 255
127 127 255
127 127 255
127 127 255
127 127 255
127 127 255
127 127 255
127 127 255
127 127 255
127 127 255
127 127 255
127 127 255
127 127 255
127 127 255
127 127 255
127 127 255
127 127 255
127 127 255
127 127 255
127 127 255
127 127 255
127 127 255
127 127 255
127 127 255
127 127 255
127 127 255
127 127 255
127 127 255
127 127 255
127 127 255
127 127 255
127 127 255
127 127 255
127 127 255
127 127 255
127 127 255
127 127 255
